<svg width="24" height="25" viewBox="0 0 24 25" fill="none" xmlns="http://www.w3.org/2000/svg">
<path d="M8.99805 5.49805V5.49805C8.06904 5.49805 7.60454 5.49805 7.21587 5.55961C5.07641 5.89846 3.39846 7.57641 3.05961 9.71587C2.99805 10.1045 2.99805 10.569 2.99805 11.498V13.498C2.99805 16.2983 2.99805 17.6984 3.54301 18.768C4.02238 19.7088 4.78728 20.4737 5.72809 20.9531C6.79765 21.498 8.19778 21.498 10.998 21.498H12.998C15.7983 21.498 17.1984 21.498 18.268 20.9531C19.2088 20.4737 19.9737 19.7088 20.4531 18.768C20.998 17.6984 20.998 16.2983 20.998 13.498V11.498C20.998 10.569 20.998 10.1045 20.9365 9.71587C20.5976 7.57641 18.9197 5.89846 16.7802 5.55961C16.3916 5.49805 15.9271 5.49805 14.998 5.49805V5.49805M8.99805 5.49805V6.99805M8.99805 5.49805V3.49805M8.99805 5.49805H14.998M14.998 5.49805V3.49805M14.998 5.49805V6.99805M11.998 17.498V10.498M7.49805 17.498V10.498M16.498 17.498V10.498" stroke="#8F7D6A" stroke-width="1.5" stroke-linecap="round" stroke-linejoin="round"/>
</svg>
