<svg width="425" height="268" viewBox="0 0 425 268" fill="none" xmlns="http://www.w3.org/2000/svg">
<rect x="12" y="5.25195" width="413" height="259" rx="10" fill="#F2F2F2"/>
<path opacity="0.2" d="M11.9995 101.252C43.2925 99.9173 74.0452 107.622 100.29 122.904C126.536 138.185 146.408 160.348 156.85 185.983C167.293 211.619 166.5 213 166.5 238.252C166.5 238.252 162.5 255.752 154.5 264.752L133 264.752C133.5 264.752 140.794 251.771 142 248.252C151 222 145.822 213.501 136.921 191.65C128.02 169.799 111.082 150.908 88.7108 137.882C66.3399 124.857 38.6742 118.614 12.0006 119.752L11.9995 101.252Z" fill="#E2DFCF"/>
<path opacity="0.2" d="M395.5 5.25142C394.921 38.2481 381.551 70.2298 358.582 93.342C335.613 116.454 304.717 129.373 272.568 129.308C240.419 129.243 209.596 116.199 186.758 92.9943C163.919 69.7894 150.897 38.2856 150.504 5.28696L172.5 5.28731C172.823 32.3916 183.389 57.9729 202.149 77.0329C220.908 96.0929 246.225 106.807 272.631 106.86C299.038 106.913 324.415 96.3023 343.281 77.3185C362.147 58.3346 373.026 32.3547 373.501 5.25199L384.501 5.25072L395.5 5.25142Z" fill="#E2DFCF"/>
</svg>
