<svg width="417" height="296" viewBox="0 0 417 296" fill="none" xmlns="http://www.w3.org/2000/svg">
<rect x="1" y="0.251953" width="413" height="259" rx="10" fill="#F2F2F2"/>
<path opacity="0.2" d="M148.047 259.409C148.034 249.84 151.261 240.659 157.018 233.886C162.774 227.112 170.588 223.301 178.741 223.291C186.894 223.28 194.717 227.072 200.491 233.831C206.264 240.59 209.514 249.762 209.527 259.331L178.787 259.37L148.047 259.409Z" fill="#E2DFCF"/>
<path opacity="0.2" d="M414.705 233.283C385.734 233.039 355.805 224.503 335.456 208.058C315.108 191.612 303.785 169.444 303.978 146.431C304.172 123.417 315.867 101.443 336.489 85.343C357.112 69.2425 385.359 60.8599 414.33 61.1038L414.516 146.622L414.705 233.283Z" fill="#E2DFCF"/>
<path opacity="0.2" d="M0.111872 47.2727C22.4219 47.2862 45.5172 56.4728 61.2818 74.5009C77.0464 92.529 85.8942 116.973 85.8787 142.455C85.8632 167.937 76.9857 192.37 61.1992 210.379C45.4127 228.388 23.2742 237.848 0.96417 237.835L0.76073 143.222L0.111872 47.2727Z" fill="#E2DFCF"/>
</svg>
