<svg width="423" height="259" viewBox="0 0 423 259" fill="none" xmlns="http://www.w3.org/2000/svg">
<rect x="10" width="413" height="259" rx="10" fill="#F2F2F2"/>
<path opacity="0.2" d="M47.5606 182.839C54.5882 189.001 62.6209 193.087 71.9095 192.984C90.1423 192.755 106.398 179.813 119.543 167.007C127.878 158.866 137.065 151.105 143.233 140.846C151.067 127.821 150.155 117.193 143.974 104.252C137.745 91.2195 130.171 79.0105 121.388 67.8433C114.442 59.026 104.426 48.2165 92.4855 48.6352C89.4102 48.7408 86.3986 49.7572 83.47 50.879C59.7907 59.9995 37.0094 76.5373 19.1315 95.6253C4.04664 111.734 9.31021 127.871 19.4377 144.352C26.7809 156.296 35.755 172.491 47.5606 182.839Z" fill="#E2DFCF"/>
<path opacity="0.2" d="M297.517 243.377C293.191 238.517 294.584 230.886 300.348 227.869L403.059 174.096C409.45 170.75 417.173 175.066 417.673 182.263L422.258 248.307C422.659 254.089 418.077 259 412.282 259H315.911C313.057 259 310.339 257.781 308.442 255.649L297.517 243.377Z" fill="#E2DFCF"/>
</svg>
